<?xml version="1.0" encoding="utf-8"?>
<!-- Generator: Adobe Illustrator 26.3.1, SVG Export Plug-In . SVG Version: 6.00 Build 0)  -->
<svg version="1.1" xmlns="http://www.w3.org/2000/svg" xmlns:xlink="http://www.w3.org/1999/xlink" x="0px" y="0px"
	 viewBox="0 0 64 64" style="enable-background:new 0 0 64 64;" xml:space="preserve">
<style type="text/css">
	.st0{display:none;}
	.st1{display:inline;}
	.st2{fill:none;stroke:#A7A9AC;stroke-width:2.000000e-02;stroke-miterlimit:10;}
	.st3{fill:#A7A9AC;}
	.st4{fill:#DF202D;}
</style>
<g id="Grid" class="st0">
	<g class="st1">
		<line class="st2" x1="1" y1="0" x2="1" y2="64"/>
		<line class="st2" x1="2" y1="0" x2="2" y2="64"/>
		<line class="st2" x1="3" y1="0" x2="3" y2="64"/>
		<line class="st2" x1="4.1" y1="0" x2="4.1" y2="64"/>
		<line class="st2" x1="5.1" y1="0" x2="5.1" y2="64"/>
		<line class="st2" x1="6.1" y1="0" x2="6.1" y2="64"/>
		<line class="st2" x1="7.1" y1="0" x2="7.1" y2="64"/>
		<line class="st2" x1="8.1" y1="0" x2="8.1" y2="64"/>
		<line class="st2" x1="9.1" y1="0" x2="9.1" y2="64"/>
		<line class="st2" x1="10.2" y1="0" x2="10.2" y2="64"/>
		<line class="st2" x1="11.2" y1="0" x2="11.2" y2="64"/>
		<line class="st2" x1="12.2" y1="0" x2="12.2" y2="64"/>
		<line class="st2" x1="13.2" y1="0" x2="13.2" y2="64"/>
		<line class="st2" x1="14.2" y1="0" x2="14.2" y2="64"/>
		<line class="st2" x1="15.2" y1="0" x2="15.2" y2="64"/>
		<line class="st2" x1="16.3" y1="0" x2="16.3" y2="64"/>
		<line class="st2" x1="17.3" y1="0" x2="17.3" y2="64"/>
		<line class="st2" x1="18.3" y1="0" x2="18.3" y2="64"/>
		<line class="st2" x1="19.3" y1="0" x2="19.3" y2="64"/>
		<line class="st2" x1="20.3" y1="0" x2="20.3" y2="64"/>
		<line class="st2" x1="21.3" y1="0" x2="21.3" y2="64"/>
		<line class="st2" x1="22.3" y1="0" x2="22.3" y2="64"/>
		<line class="st2" x1="23.4" y1="0" x2="23.4" y2="64"/>
		<line class="st2" x1="24.4" y1="0" x2="24.4" y2="64"/>
		<line class="st2" x1="25.4" y1="0" x2="25.4" y2="64"/>
		<line class="st2" x1="26.4" y1="0" x2="26.4" y2="64"/>
		<line class="st2" x1="27.4" y1="0" x2="27.4" y2="64"/>
		<line class="st2" x1="28.4" y1="0" x2="28.4" y2="64"/>
		<line class="st2" x1="29.5" y1="0" x2="29.5" y2="64"/>
		<line class="st2" x1="30.5" y1="0" x2="30.5" y2="64"/>
		<line class="st2" x1="31.5" y1="0" x2="31.5" y2="64"/>
		<line class="st2" x1="32.5" y1="0" x2="32.5" y2="64"/>
		<line class="st2" x1="33.5" y1="0" x2="33.5" y2="64"/>
		<line class="st2" x1="34.5" y1="0" x2="34.5" y2="64"/>
		<line class="st2" x1="35.6" y1="0" x2="35.6" y2="64"/>
		<line class="st2" x1="36.6" y1="0" x2="36.6" y2="64"/>
		<line class="st2" x1="37.6" y1="0" x2="37.6" y2="64"/>
		<line class="st2" x1="38.6" y1="0" x2="38.6" y2="64"/>
		<line class="st2" x1="39.6" y1="0" x2="39.6" y2="64"/>
		<line class="st2" x1="40.6" y1="0" x2="40.6" y2="64"/>
		<line class="st2" x1="41.7" y1="0" x2="41.7" y2="64"/>
		<line class="st2" x1="42.7" y1="0" x2="42.7" y2="64"/>
		<line class="st2" x1="43.7" y1="0" x2="43.7" y2="64"/>
		<line class="st2" x1="44.7" y1="0" x2="44.7" y2="64"/>
		<line class="st2" x1="45.7" y1="0" x2="45.7" y2="64"/>
		<line class="st2" x1="46.7" y1="0" x2="46.7" y2="64"/>
		<line class="st2" x1="47.7" y1="0" x2="47.7" y2="64"/>
		<line class="st2" x1="48.8" y1="0" x2="48.8" y2="64"/>
		<line class="st2" x1="49.8" y1="0" x2="49.8" y2="64"/>
		<line class="st2" x1="50.8" y1="0" x2="50.8" y2="64"/>
		<line class="st2" x1="51.8" y1="0" x2="51.8" y2="64"/>
		<line class="st2" x1="52.8" y1="0" x2="52.8" y2="64"/>
		<line class="st2" x1="53.8" y1="0" x2="53.8" y2="64"/>
		<line class="st2" x1="54.9" y1="0" x2="54.9" y2="64"/>
		<line class="st2" x1="55.9" y1="0" x2="55.9" y2="64"/>
		<line class="st2" x1="56.9" y1="0" x2="56.9" y2="64"/>
		<line class="st2" x1="57.9" y1="0" x2="57.9" y2="64"/>
		<line class="st2" x1="58.9" y1="0" x2="58.9" y2="64"/>
		<line class="st2" x1="59.9" y1="0" x2="59.9" y2="64"/>
		<line class="st2" x1="61" y1="0" x2="61" y2="64"/>
		<line class="st2" x1="62" y1="0" x2="62" y2="64"/>
		<line class="st2" x1="63" y1="0" x2="63" y2="64"/>
		<line class="st2" x1="64" y1="1" x2="0" y2="1"/>
		<line class="st2" x1="64" y1="2" x2="0" y2="2"/>
		<line class="st2" x1="64" y1="3" x2="0" y2="3"/>
		<line class="st2" x1="64" y1="4.1" x2="0" y2="4.1"/>
		<line class="st2" x1="64" y1="5.1" x2="0" y2="5.1"/>
		<line class="st2" x1="64" y1="6.1" x2="0" y2="6.1"/>
		<line class="st2" x1="64" y1="7.1" x2="0" y2="7.1"/>
		<line class="st2" x1="64" y1="8.1" x2="0" y2="8.1"/>
		<line class="st2" x1="64" y1="9.1" x2="0" y2="9.1"/>
		<line class="st2" x1="64" y1="10.2" x2="0" y2="10.2"/>
		<line class="st2" x1="64" y1="11.2" x2="0" y2="11.2"/>
		<line class="st2" x1="64" y1="12.2" x2="0" y2="12.2"/>
		<line class="st2" x1="64" y1="13.2" x2="0" y2="13.2"/>
		<line class="st2" x1="64" y1="14.2" x2="0" y2="14.2"/>
		<line class="st2" x1="64" y1="15.2" x2="0" y2="15.2"/>
		<line class="st2" x1="64" y1="16.3" x2="0" y2="16.3"/>
		<line class="st2" x1="64" y1="17.3" x2="0" y2="17.3"/>
		<line class="st2" x1="64" y1="18.3" x2="0" y2="18.3"/>
		<line class="st2" x1="64" y1="19.3" x2="0" y2="19.3"/>
		<line class="st2" x1="64" y1="20.3" x2="0" y2="20.3"/>
		<line class="st2" x1="64" y1="21.3" x2="0" y2="21.3"/>
		<line class="st2" x1="64" y1="22.3" x2="0" y2="22.3"/>
		<line class="st2" x1="64" y1="23.4" x2="0" y2="23.4"/>
		<line class="st2" x1="64" y1="24.4" x2="0" y2="24.4"/>
		<line class="st2" x1="64" y1="25.4" x2="0" y2="25.4"/>
		<line class="st2" x1="64" y1="26.4" x2="0" y2="26.4"/>
		<line class="st2" x1="64" y1="27.4" x2="0" y2="27.4"/>
		<line class="st2" x1="64" y1="28.4" x2="0" y2="28.4"/>
		<line class="st2" x1="64" y1="29.5" x2="0" y2="29.5"/>
		<line class="st2" x1="64" y1="30.5" x2="0" y2="30.5"/>
		<line class="st2" x1="64" y1="31.5" x2="0" y2="31.5"/>
		<line class="st2" x1="64" y1="32.5" x2="0" y2="32.5"/>
		<line class="st2" x1="64" y1="33.5" x2="0" y2="33.5"/>
		<line class="st2" x1="64" y1="34.5" x2="0" y2="34.5"/>
		<line class="st2" x1="64" y1="35.6" x2="0" y2="35.6"/>
		<line class="st2" x1="64" y1="36.6" x2="0" y2="36.6"/>
		<line class="st2" x1="64" y1="37.6" x2="0" y2="37.6"/>
		<line class="st2" x1="64" y1="38.6" x2="0" y2="38.6"/>
		<line class="st2" x1="64" y1="39.6" x2="0" y2="39.6"/>
		<line class="st2" x1="64" y1="40.6" x2="0" y2="40.6"/>
		<line class="st2" x1="64" y1="41.7" x2="0" y2="41.7"/>
		<line class="st2" x1="64" y1="42.7" x2="0" y2="42.7"/>
		<line class="st2" x1="64" y1="43.7" x2="0" y2="43.7"/>
		<line class="st2" x1="64" y1="44.7" x2="0" y2="44.7"/>
		<line class="st2" x1="64" y1="45.7" x2="0" y2="45.7"/>
		<line class="st2" x1="64" y1="46.7" x2="0" y2="46.7"/>
		<line class="st2" x1="64" y1="47.7" x2="0" y2="47.7"/>
		<line class="st2" x1="64" y1="48.8" x2="0" y2="48.8"/>
		<line class="st2" x1="64" y1="49.8" x2="0" y2="49.8"/>
		<line class="st2" x1="64" y1="50.8" x2="0" y2="50.8"/>
		<line class="st2" x1="64" y1="51.8" x2="0" y2="51.8"/>
		<line class="st2" x1="64" y1="52.8" x2="0" y2="52.8"/>
		<line class="st2" x1="64" y1="53.8" x2="0" y2="53.8"/>
		<line class="st2" x1="64" y1="54.9" x2="0" y2="54.9"/>
		<line class="st2" x1="64" y1="55.9" x2="0" y2="55.9"/>
		<line class="st2" x1="64" y1="56.9" x2="0" y2="56.9"/>
		<line class="st2" x1="64" y1="57.9" x2="0" y2="57.9"/>
		<line class="st2" x1="64" y1="58.9" x2="0" y2="58.9"/>
		<line class="st2" x1="64" y1="59.9" x2="0" y2="59.9"/>
		<line class="st2" x1="64" y1="61" x2="0" y2="61"/>
		<line class="st2" x1="64" y1="62" x2="0" y2="62"/>
		<line class="st2" x1="64" y1="63" x2="0" y2="63"/>
	</g>
</g>
<g id="Safety_area" class="st0">
	<g class="st1">
		<g>
			<path class="st3" d="M58,6v52H6V6H58 M64,0H0v64h64V0L64,0z"/>
		</g>
	</g>
</g>
<g id="Artwork">
	<g>
		<g>
			<g>
				<path class="st4" d="M35,24.7c-1.4,0-2.8-0.5-3.8-1.6c-2.1-2.1-2.1-5.4,0-7.7c0,0,0,0,0,0c2.5-2.8,8.6-2.5,9.3-2.4
					c0.5,0,0.9,0.5,0.9,1c0,0.7,0,7-2.4,9.2C37.8,24.2,36.4,24.7,35,24.7z M32.6,16.7c-1.3,1.5-1.4,3.7,0,5c1.3,1.3,3.5,1.3,5,0
					c1.1-1,1.6-4.3,1.7-6.7C37.3,14.9,34,15.2,32.6,16.7L32.6,16.7z"/>
			</g>
		</g>
		<g>
			<path class="st4" d="M38.6,57.8H10.4c-1.5,0-2.8-1.2-2.8-2.8V9c0-1.5,1.2-2.8,2.8-2.8h28.2c1.5,0,2.8,1.2,2.8,2.8v4.1
				c6.1,1,6.1,4.8,6.1,11.6l0,23.7l3.3,7.2c0,0.1,0.1,0.2,0.2,0.2s0.1-0.1,0.2-0.1l3.3-7.4V8.4c0-0.1-0.1-0.2-0.2-0.2h-7.5
				c-0.6,0-1-0.4-1-1s0.4-1,1-1h7.5c1.2,0,2.2,1,2.2,2.2v40c0,0.1,0,0.1,0,0.2l-0.1,0.3c0,0.1,0,0.1-0.1,0.2l-3.3,7.3
				c-0.3,0.8-1.1,1.4-2,1.4s-1.7-0.6-2-1.4l-3.3-7.3c0-0.1-0.1-0.1-0.1-0.2l-0.1-0.3c0-0.1,0-0.1,0-0.2V24.7c0-7.8-0.4-9.3-5.2-9.8
				c-0.5-0.1-0.9-0.5-0.9-1V9c0-0.4-0.3-0.8-0.8-0.8H10.4C10,8.2,9.6,8.6,9.6,9v46.1c0,0.4,0.3,0.8,0.8,0.8h28.2
				c0.4,0,0.8-0.3,0.8-0.8V32.8c0-0.6,0.4-1,1-1s1,0.4,1,1v22.3C41.3,56.6,40.1,57.8,38.6,57.8z M55.4,48.4L55.4,48.4L55.4,48.4z"/>
		</g>
		<g>
			<path class="st4" d="M34.8,42.7H14.4c-0.6,0-1-0.4-1-1s0.4-1,1-1h20.4c0.6,0,1,0.4,1,1S35.4,42.7,34.8,42.7z"/>
		</g>
		<g>
			<path class="st4" d="M34.8,50.5H14.4c-0.6,0-1-0.4-1-1s0.4-1,1-1h20.4c0.6,0,1,0.4,1,1S35.4,50.5,34.8,50.5z"/>
		</g>
	</g>
</g>
</svg>
