<?xml version="1.0" encoding="utf-8"?>
<!-- Generator: Adobe Illustrator 26.3.1, SVG Export Plug-In . SVG Version: 6.00 Build 0)  -->
<svg version="1.1" xmlns="http://www.w3.org/2000/svg" xmlns:xlink="http://www.w3.org/1999/xlink" x="0px" y="0px"
	 viewBox="0 0 64 64" style="enable-background:new 0 0 64 64;" xml:space="preserve">
<style type="text/css">
	.st0{display:none;}
	.st1{display:inline;}
	.st2{fill:none;stroke:#A7A9AC;stroke-width:2.000000e-02;stroke-miterlimit:10;}
	.st3{fill:#A7A9AC;}
	.st4{fill:#DF202D;}
</style>
<g id="Grid" class="st0">
	<g class="st1">
		<line class="st2" x1="1" y1="0" x2="1" y2="64"/>
		<line class="st2" x1="2" y1="0" x2="2" y2="64"/>
		<line class="st2" x1="3" y1="0" x2="3" y2="64"/>
		<line class="st2" x1="4.1" y1="0" x2="4.1" y2="64"/>
		<line class="st2" x1="5.1" y1="0" x2="5.1" y2="64"/>
		<line class="st2" x1="6.1" y1="0" x2="6.1" y2="64"/>
		<line class="st2" x1="7.1" y1="0" x2="7.1" y2="64"/>
		<line class="st2" x1="8.1" y1="0" x2="8.1" y2="64"/>
		<line class="st2" x1="9.1" y1="0" x2="9.1" y2="64"/>
		<line class="st2" x1="10.2" y1="0" x2="10.2" y2="64"/>
		<line class="st2" x1="11.2" y1="0" x2="11.2" y2="64"/>
		<line class="st2" x1="12.2" y1="0" x2="12.2" y2="64"/>
		<line class="st2" x1="13.2" y1="0" x2="13.2" y2="64"/>
		<line class="st2" x1="14.2" y1="0" x2="14.2" y2="64"/>
		<line class="st2" x1="15.2" y1="0" x2="15.2" y2="64"/>
		<line class="st2" x1="16.3" y1="0" x2="16.3" y2="64"/>
		<line class="st2" x1="17.3" y1="0" x2="17.3" y2="64"/>
		<line class="st2" x1="18.3" y1="0" x2="18.3" y2="64"/>
		<line class="st2" x1="19.3" y1="0" x2="19.3" y2="64"/>
		<line class="st2" x1="20.3" y1="0" x2="20.3" y2="64"/>
		<line class="st2" x1="21.3" y1="0" x2="21.3" y2="64"/>
		<line class="st2" x1="22.3" y1="0" x2="22.3" y2="64"/>
		<line class="st2" x1="23.4" y1="0" x2="23.4" y2="64"/>
		<line class="st2" x1="24.4" y1="0" x2="24.4" y2="64"/>
		<line class="st2" x1="25.4" y1="0" x2="25.4" y2="64"/>
		<line class="st2" x1="26.4" y1="0" x2="26.4" y2="64"/>
		<line class="st2" x1="27.4" y1="0" x2="27.4" y2="64"/>
		<line class="st2" x1="28.4" y1="0" x2="28.4" y2="64"/>
		<line class="st2" x1="29.5" y1="0" x2="29.5" y2="64"/>
		<line class="st2" x1="30.5" y1="0" x2="30.5" y2="64"/>
		<line class="st2" x1="31.5" y1="0" x2="31.5" y2="64"/>
		<line class="st2" x1="32.5" y1="0" x2="32.5" y2="64"/>
		<line class="st2" x1="33.5" y1="0" x2="33.5" y2="64"/>
		<line class="st2" x1="34.5" y1="0" x2="34.5" y2="64"/>
		<line class="st2" x1="35.6" y1="0" x2="35.6" y2="64"/>
		<line class="st2" x1="36.6" y1="0" x2="36.6" y2="64"/>
		<line class="st2" x1="37.6" y1="0" x2="37.6" y2="64"/>
		<line class="st2" x1="38.6" y1="0" x2="38.6" y2="64"/>
		<line class="st2" x1="39.6" y1="0" x2="39.6" y2="64"/>
		<line class="st2" x1="40.6" y1="0" x2="40.6" y2="64"/>
		<line class="st2" x1="41.7" y1="0" x2="41.7" y2="64"/>
		<line class="st2" x1="42.7" y1="0" x2="42.7" y2="64"/>
		<line class="st2" x1="43.7" y1="0" x2="43.7" y2="64"/>
		<line class="st2" x1="44.7" y1="0" x2="44.7" y2="64"/>
		<line class="st2" x1="45.7" y1="0" x2="45.7" y2="64"/>
		<line class="st2" x1="46.7" y1="0" x2="46.7" y2="64"/>
		<line class="st2" x1="47.7" y1="0" x2="47.7" y2="64"/>
		<line class="st2" x1="48.8" y1="0" x2="48.8" y2="64"/>
		<line class="st2" x1="49.8" y1="0" x2="49.8" y2="64"/>
		<line class="st2" x1="50.8" y1="0" x2="50.8" y2="64"/>
		<line class="st2" x1="51.8" y1="0" x2="51.8" y2="64"/>
		<line class="st2" x1="52.8" y1="0" x2="52.8" y2="64"/>
		<line class="st2" x1="53.8" y1="0" x2="53.8" y2="64"/>
		<line class="st2" x1="54.9" y1="0" x2="54.9" y2="64"/>
		<line class="st2" x1="55.9" y1="0" x2="55.9" y2="64"/>
		<line class="st2" x1="56.9" y1="0" x2="56.9" y2="64"/>
		<line class="st2" x1="57.9" y1="0" x2="57.9" y2="64"/>
		<line class="st2" x1="58.9" y1="0" x2="58.9" y2="64"/>
		<line class="st2" x1="59.9" y1="0" x2="59.9" y2="64"/>
		<line class="st2" x1="61" y1="0" x2="61" y2="64"/>
		<line class="st2" x1="62" y1="0" x2="62" y2="64"/>
		<line class="st2" x1="63" y1="0" x2="63" y2="64"/>
		<line class="st2" x1="64" y1="1" x2="0" y2="1"/>
		<line class="st2" x1="64" y1="2" x2="0" y2="2"/>
		<line class="st2" x1="64" y1="3" x2="0" y2="3"/>
		<line class="st2" x1="64" y1="4.1" x2="0" y2="4.1"/>
		<line class="st2" x1="64" y1="5.1" x2="0" y2="5.1"/>
		<line class="st2" x1="64" y1="6.1" x2="0" y2="6.1"/>
		<line class="st2" x1="64" y1="7.1" x2="0" y2="7.1"/>
		<line class="st2" x1="64" y1="8.1" x2="0" y2="8.1"/>
		<line class="st2" x1="64" y1="9.1" x2="0" y2="9.1"/>
		<line class="st2" x1="64" y1="10.2" x2="0" y2="10.2"/>
		<line class="st2" x1="64" y1="11.2" x2="0" y2="11.2"/>
		<line class="st2" x1="64" y1="12.2" x2="0" y2="12.2"/>
		<line class="st2" x1="64" y1="13.2" x2="0" y2="13.2"/>
		<line class="st2" x1="64" y1="14.2" x2="0" y2="14.2"/>
		<line class="st2" x1="64" y1="15.2" x2="0" y2="15.2"/>
		<line class="st2" x1="64" y1="16.3" x2="0" y2="16.3"/>
		<line class="st2" x1="64" y1="17.3" x2="0" y2="17.3"/>
		<line class="st2" x1="64" y1="18.3" x2="0" y2="18.3"/>
		<line class="st2" x1="64" y1="19.3" x2="0" y2="19.3"/>
		<line class="st2" x1="64" y1="20.3" x2="0" y2="20.3"/>
		<line class="st2" x1="64" y1="21.3" x2="0" y2="21.3"/>
		<line class="st2" x1="64" y1="22.3" x2="0" y2="22.3"/>
		<line class="st2" x1="64" y1="23.4" x2="0" y2="23.4"/>
		<line class="st2" x1="64" y1="24.4" x2="0" y2="24.4"/>
		<line class="st2" x1="64" y1="25.4" x2="0" y2="25.4"/>
		<line class="st2" x1="64" y1="26.4" x2="0" y2="26.4"/>
		<line class="st2" x1="64" y1="27.4" x2="0" y2="27.4"/>
		<line class="st2" x1="64" y1="28.4" x2="0" y2="28.4"/>
		<line class="st2" x1="64" y1="29.5" x2="0" y2="29.5"/>
		<line class="st2" x1="64" y1="30.5" x2="0" y2="30.5"/>
		<line class="st2" x1="64" y1="31.5" x2="0" y2="31.5"/>
		<line class="st2" x1="64" y1="32.5" x2="0" y2="32.5"/>
		<line class="st2" x1="64" y1="33.5" x2="0" y2="33.5"/>
		<line class="st2" x1="64" y1="34.5" x2="0" y2="34.5"/>
		<line class="st2" x1="64" y1="35.6" x2="0" y2="35.6"/>
		<line class="st2" x1="64" y1="36.6" x2="0" y2="36.6"/>
		<line class="st2" x1="64" y1="37.6" x2="0" y2="37.6"/>
		<line class="st2" x1="64" y1="38.6" x2="0" y2="38.6"/>
		<line class="st2" x1="64" y1="39.6" x2="0" y2="39.6"/>
		<line class="st2" x1="64" y1="40.6" x2="0" y2="40.6"/>
		<line class="st2" x1="64" y1="41.7" x2="0" y2="41.7"/>
		<line class="st2" x1="64" y1="42.7" x2="0" y2="42.7"/>
		<line class="st2" x1="64" y1="43.7" x2="0" y2="43.7"/>
		<line class="st2" x1="64" y1="44.7" x2="0" y2="44.7"/>
		<line class="st2" x1="64" y1="45.7" x2="0" y2="45.7"/>
		<line class="st2" x1="64" y1="46.7" x2="0" y2="46.7"/>
		<line class="st2" x1="64" y1="47.7" x2="0" y2="47.7"/>
		<line class="st2" x1="64" y1="48.8" x2="0" y2="48.8"/>
		<line class="st2" x1="64" y1="49.8" x2="0" y2="49.8"/>
		<line class="st2" x1="64" y1="50.8" x2="0" y2="50.8"/>
		<line class="st2" x1="64" y1="51.8" x2="0" y2="51.8"/>
		<line class="st2" x1="64" y1="52.8" x2="0" y2="52.8"/>
		<line class="st2" x1="64" y1="53.8" x2="0" y2="53.8"/>
		<line class="st2" x1="64" y1="54.9" x2="0" y2="54.9"/>
		<line class="st2" x1="64" y1="55.9" x2="0" y2="55.9"/>
		<line class="st2" x1="64" y1="56.9" x2="0" y2="56.9"/>
		<line class="st2" x1="64" y1="57.9" x2="0" y2="57.9"/>
		<line class="st2" x1="64" y1="58.9" x2="0" y2="58.9"/>
		<line class="st2" x1="64" y1="59.9" x2="0" y2="59.9"/>
		<line class="st2" x1="64" y1="61" x2="0" y2="61"/>
		<line class="st2" x1="64" y1="62" x2="0" y2="62"/>
		<line class="st2" x1="64" y1="63" x2="0" y2="63"/>
	</g>
</g>
<g id="Safety_area" class="st0">
	<g class="st1">
		<g>
			<path class="st3" d="M58,6v52H6V6H58 M64,0H0v64h64V0L64,0z"/>
		</g>
	</g>
</g>
<g id="Artwork">
	<path class="st4" d="M34.3,29.1L31,32.3v-7c3.7-0.4,6.6-3.5,6.6-7.3c0-4-3.3-7.3-7.3-7.3c-2.8,0-5.5,1.7-6.7,4.3
		c-0.2,0.5,0,1,0.5,1.2c0.5,0.2,1,0,1.2-0.5c0.9-1.9,2.8-3.2,5-3.2c3,0,5.5,2.5,5.5,5.5c0,2.8-2.1,5.1-4.8,5.4
		c0-1.3-0.2-3.5-1.5-4.6c-1.5-1.3-3.6-1.3-4.9,0c-1.4,1.3-1.4,3.5-0.1,4.9c1.2,1.3,3.4,1.5,4.6,1.6v6.9l-3.2-3.2
		c-0.4-0.4-1-0.4-1.3,0c-0.4,0.4-0.4,1,0,1.3l4.8,4.8c0.2,0.2,0.4,0.3,0.7,0.3s0.5-0.1,0.7-0.3l4.8-4.8c0.4-0.4,0.4-1,0-1.3
		C35.2,28.7,34.6,28.7,34.3,29.1z M25.9,22.5c-0.6-0.7-0.6-1.7,0-2.3c0.3-0.3,0.7-0.4,1.1-0.4c0.4,0,0.9,0.2,1.3,0.5
		c0.6,0.6,0.8,2,0.8,3.2C28,23.5,26.5,23.2,25.9,22.5z"/>
	<g>
		<path class="st4" d="M38,20.8c-0.4,0-0.7,0-1.1-0.1c-0.5-0.1-0.9-0.5-0.8-1.1c0.1-0.5,0.5-0.9,1.1-0.8c0.3,0,0.5,0.1,0.8,0.1
			c3,0,5.5-2.5,5.5-5.5S41,8,38,8c-2.5,0-4.7,1.7-5.3,4.1c-0.1,0.5-0.6,0.8-1.1,0.7c-0.5-0.1-0.8-0.6-0.7-1.1
			c0.8-3.2,3.8-5.5,7.1-5.5c4,0,7.3,3.3,7.3,7.3S42,20.8,38,20.8z"/>
	</g>
	<g>
		<path class="st4" d="M40.7,50.1c-0.9,0-2-0.3-2.9-0.6c-0.5-0.2-0.9-0.3-1.4-0.4c-0.4-0.1-1.1-0.3-2-0.5c-2.4-0.6-7.4-2-8.7-1.8
			c-0.5,0.1-1-0.3-1.1-0.8c-0.1-0.5,0.3-1,0.8-1.1c1.6-0.3,5.4,0.7,9.5,1.8c0.9,0.2,1.6,0.4,2,0.5c0.5,0.1,1,0.3,1.5,0.4
			c1,0.3,2.3,0.7,2.9,0.4c0.3-0.2,0.4-0.6,0.5-1c0.3-2-3.4-4.1-7.3-5.2c-0.8-0.2-1.9-0.7-3.2-1.2c-2.5-1-5.6-2.4-8-2.4
			c-2.4-0.1-4.7,1.1-9.7,3.7c-2.4,1.2-5.4,2.8-9.3,4.6c-0.5,0.2-1,0-1.2-0.4s0-1,0.4-1.2c3.9-1.8,6.9-3.4,9.3-4.6
			c5.3-2.7,7.7-3.9,10.6-3.9c2.8,0.1,6.1,1.4,8.7,2.6c1.2,0.5,2.2,0.9,3,1.1c2.8,0.8,9.2,3.1,8.6,7.2c-0.2,1.1-0.6,1.9-1.3,2.3
			C41.7,50,41.2,50.1,40.7,50.1z"/>
	</g>
	<g>
		<path class="st4" d="M42.6,54.4c-0.4,0-0.7-0.2-0.9-0.6c-0.2-0.5,0-1,0.5-1.2c3.9-1.6,7.4-3.2,9.5-4.2c0.7-0.3,1.2-0.6,1.6-0.7
			c0.3-0.1,0.6-0.2,0.9-0.4c1.4-0.6,4.2-1.8,4.6-2.8c0-0.1,0-0.2,0-0.3c-0.8-1.7-4.7-0.5-6.4,0C50.4,45,43,48.1,43,48.2
			c-0.5,0.2-1,0-1.2-0.5c-0.2-0.5,0-1,0.5-1.2c0.3-0.1,7.5-3.2,9.7-3.9c2.3-0.7,7.1-2.2,8.6,1c0.3,0.6,0.3,1.1,0,1.7
			c-0.6,1.6-3,2.7-5.7,3.8c-0.3,0.1-0.6,0.3-0.8,0.4c-0.4,0.2-0.9,0.4-1.6,0.7c-2.1,1-5.7,2.6-9.5,4.2
			C42.9,54.4,42.8,54.4,42.6,54.4z"/>
	</g>
	<g>
		<path class="st4" d="M32.9,57.9c-2.2,0-6.2-1.3-11.2-3.1c-2.3-0.8-4.9-1.7-5.5-1.7c-1.6,0-2.9,0-7.2,3.2c-0.4,0.3-1,0.2-1.3-0.2
			c-0.3-0.4-0.2-1,0.2-1.3c4.5-3.3,6.2-3.6,8.4-3.6c0.8,0,2.7,0.6,6.1,1.8c3.8,1.3,9.1,3.2,10.9,3c0.3,0,1.3-0.3,4.6-1.6
			c0.5-0.2,1,0,1.2,0.5c0.2,0.5,0,1-0.5,1.2c-3.6,1.4-4.6,1.6-5.1,1.7C33.2,57.9,33.1,57.9,32.9,57.9z"/>
	</g>
	<g>
		<path class="st4" d="M51.2,44.7c-0.3,0-0.6-0.2-0.8-0.5c-0.3-0.4-0.1-1,0.3-1.3c1.4-0.8,2-1.7,2-2.3c0-0.2,0-0.4-0.2-0.5
			c-1.1-0.9-5.6,0.7-8.9,1.9c-1.3,0.5-2.7,1-4,1.4c-0.5,0.2-1-0.1-1.2-0.6c-0.2-0.5,0.1-1,0.6-1.2c1.3-0.4,2.6-0.9,4-1.4
			c4.7-1.7,8.8-3.2,10.7-1.6c0.6,0.5,0.9,1.3,0.8,2.1c-0.1,1.3-1.2,2.6-2.9,3.7C51.5,44.7,51.4,44.7,51.2,44.7z"/>
	</g>
	<g>
		<path class="st4" d="M46.2,41.1c-0.2,0-0.4-0.1-0.6-0.2c-0.4-0.3-0.5-0.9-0.1-1.3c0.4-0.5,0.8-1.2,0.5-1.9
			c-0.4-0.7-2.3-0.2-4.2,0.4c-0.7,0.2-2,0.6-3.5,1.1c-1.8,0.5-3.9,1.2-5.5,1.7c-0.5,0.2-1-0.1-1.2-0.6c-0.2-0.5,0.1-1,0.6-1.2
			c1.6-0.5,3.7-1.1,5.5-1.7c1.5-0.5,2.8-0.8,3.5-1.1c2.1-0.7,5.2-1.7,6.4,0.5c0.7,1.2,0.4,2.6-0.6,3.9C46.7,41,46.4,41.1,46.2,41.1z
			"/>
	</g>
</g>
</svg>
