<svg id="Artwork" xmlns="http://www.w3.org/2000/svg" viewBox="0 0 64 64"><defs><style>.cls-1{fill:#df202d;}</style></defs><path class="cls-1" d="M32.69,24.67a4.82,4.82,0,0,1-2.89-.94,5.19,5.19,0,0,1-1.86-5.2,6.07,6.07,0,0,1,3.35-4.09,23.39,23.39,0,0,0-5.61-2l-3.84-1c-1.58-.41-3.12-.8-4.93-1.23a1,1,0,0,1,.47-1.95c1.82.44,3.36.83,5,1.24l3.82,1a21.2,21.2,0,0,1,7.64,3.15,7.75,7.75,0,0,1,1.59-.08,50.35,50.35,0,0,1,11,2.19l1.13.31A1,1,0,1,1,47,18l-1.13-.31a52.68,52.68,0,0,0-10-2.09A7.05,7.05,0,0,1,37.11,18a5.32,5.32,0,0,1-1.74,5.89A4.57,4.57,0,0,1,32.69,24.67Zm.6-8.85A4.51,4.51,0,0,0,29.89,19,3.18,3.18,0,0,0,31,22.13a2.8,2.8,0,0,0,3.2.08,3.34,3.34,0,0,0,1-3.67A6.11,6.11,0,0,0,33.29,15.82Z"/><path class="cls-1" d="M47.24,55.83h-.09a10.83,10.83,0,0,1-10-14.92l9.28-24.06a1.11,1.11,0,0,1,1-.72h0a1.11,1.11,0,0,1,1.05.74L57.43,41A10.89,10.89,0,0,1,47.24,55.83Zm.21-36.09L39,41.63a8.85,8.85,0,0,0,8.15,12.2,9.45,9.45,0,0,0,4.05-.92,8.93,8.93,0,0,0,4.34-11.18ZM41.08,33.46h0Zm7.2-15.89Z"/><path class="cls-1" d="M57,46.78h0l-19.19-.14a1,1,0,0,1-1-1,1,1,0,0,1,1-1h0l19.19.14a1,1,0,0,1,0,2Z"/><path class="cls-1" d="M16.86,48h-.09a11.07,11.07,0,0,1-4.47-1A10.92,10.92,0,0,1,6.77,33.09l4.92-12.77a1,1,0,1,1,1.87.72L8.63,33.81a8.94,8.94,0,0,0,4.49,11.4,9.09,9.09,0,0,0,3.67.81h.07a9.19,9.19,0,0,0,8.32-5.41,8.18,8.18,0,0,0,.18-6.19l-8.29-22.5L15.51,16a1,1,0,1,1-1.87-.72L16,9a1.11,1.11,0,0,1,1.05-.72h0a1.12,1.12,0,0,1,1,.73l9.09,24.67A10.2,10.2,0,0,1,27,41.44,11.2,11.2,0,0,1,16.86,48Z"/><path class="cls-1" d="M26.67,38.62h0L7.19,38.48a1,1,0,0,1-1-1,1,1,0,0,1,1-1l19.48.14a1,1,0,0,1,0,2Z"/></svg>