<svg xmlns="http://www.w3.org/2000/svg" viewBox="0 0 548.3 120"><defs><style>.a{fill:#df202d;}.b{fill:#fff;}</style></defs><path class="a" d="M263.7,122.6h-1.2c-17-.7-25.9-15.3-25.9-29.3s7.1-26.2,17.7-34.6a34,34,0,0,0-21.4-7.4c-33.7,0-38.3,32.9-38.3,65H174.8c0-28,4.5-48.4,13.7-62.4s24.6-22.4,44.4-22.4c14,0,28.3,6.1,39.2,16.7l.6.6A61.5,61.5,0,0,1,293,45.3a53.8,53.8,0,0,1,41.6,18.9C345.3,76.9,351,94.9,351,116.3H331.2c0-31.6-14.6-51.2-38.2-51.2a44.1,44.1,0,0,0-8.3.8,64.2,64.2,0,0,1,6,27.4c0,8.9-3.1,16.7-8.7,22.1A26,26,0,0,1,263.7,122.6Zm2.7-48.3c-6.3,5.4-10,12.3-10,19s2.6,9.3,6.9,9.5a6.6,6.6,0,0,0,5-1.7c1.7-1.6,2.6-4.4,2.6-7.8A45.1,45.1,0,0,0,266.4,74.3Z" transform="translate(-4.6 -2.6)"/><path class="b" d="M50.2,116.9c-16.8,0-35.8-8.6-45.6-20.5l14.1-16c7.5,7.7,17.1,15.2,31.5,15.2,10.9,0,18-5,18-12.7S58.3,71.7,46.8,68.7c-16-4.3-35.9-9.6-35.9-33,0-19.1,16.3-33.1,38.6-33.1,14,0,30.7,7,39.3,16.4L76,36.3c-8.3-7.7-19.1-12.5-28.4-12.5S33,27.9,33,33.9c0,8.6,10,11.4,21.6,14.7C70.7,53.2,90.8,59,90.8,82.7a31.7,31.7,0,0,1-10.6,23.6C72.7,113.2,62.3,116.9,50.2,116.9Z" transform="translate(-4.6 -2.6)"/><path class="b" d="M165.9,67.5v48.8H144.4v-9.2c-3.7,6.6-12.2,10.8-21.3,10.8-15.3,0-25.8-10.5-25.8-23.7,0-16.7,14.7-25.4,37-25.4h10.1V66.7c0-6.9-6.1-11.8-15.2-11.8s-16.9,3.7-21.3,9.2L95.5,50.9c7-9,20.5-15.5,33.7-15.5C151.7,35.4,165.9,48.5,165.9,67.5ZM144.4,91.3V83H133.1c-10,0-16,3.1-16,9.1s3.9,8,10.1,8A20.5,20.5,0,0,0,144.4,91.3Z" transform="translate(-4.6 -2.6)"/><path class="b" d="M441.8,76.6c0,22.9-16.2,41.3-36.8,41.3-10,0-19.6-4.5-23.4-11v9.4H358.8V3.3h22.8V46.4c3.8-6.5,13.4-11,23.4-11C425.6,35.4,441.8,53.6,441.8,76.6Zm-22.3,0A19.3,19.3,0,0,0,400,56.9,21.3,21.3,0,0,0,381.6,67V86.4c3.4,5.7,10.5,9.9,18.4,9.9A19.3,19.3,0,0,0,419.5,76.6Z" transform="translate(-4.6 -2.6)"/><path class="b" d="M473.8,116.3H451.1V3.3h22.7Z" transform="translate(-4.6 -2.6)"/><path class="b" d="M552.9,67.5v48.8H531.4v-9.2c-3.7,6.6-12.3,10.8-21.3,10.8-15.3,0-25.8-10.5-25.8-23.7,0-16.7,14.7-25.4,36.9-25.4h10.2V66.7c0-6.9-6.1-11.8-15.2-11.8s-16.9,3.7-21.3,9.2L482.5,50.9c6.9-9,20.5-15.5,33.7-15.5C538.7,35.4,552.9,48.5,552.9,67.5ZM531.4,91.3V83H520.1c-10,0-16,3.1-16,9.1s3.9,8,10,8A20.7,20.7,0,0,0,531.4,91.3Z" transform="translate(-4.6 -2.6)"/></svg>